<?xml version="1.0" encoding="UTF-8"?>
<!DOCTYPE svg PUBLIC "-//W3C//DTD SVG 1.1//EN"
    "http://www.w3.org/Graphics/SVG/1.1/DTD/svg11.dtd"><svg xmlns="http://www.w3.org/2000/svg" viewBox="0.0 0.0 400.0 319.99999999999994" height="320.0000" font-size="1" stroke-opacity="1" width="400.0000" xmlns:xlink="http://www.w3.org/1999/xlink" stroke="rgb(0,0,0)" version="1.1"><defs></defs><g stroke-linecap="butt" fill="rgb(144,238,144)" stroke-miterlimit="10.0" stroke-width="1.4310835055998652" fill-opacity="1.0" stroke-opacity="1.0" stroke-linejoin="miter" stroke="rgb(0,0,0)"><path d="M 320.0000,160.0000 c 0.0000,-44.1828 -35.8172,-80.0000 -80.0000 -80.0000c -44.1828,-0.0000 -80.0000,35.8172 -80.0000 80.0000c -0.0000,44.1828 35.8172,80.0000 80.0000 80.0000c 44.1828,0.0000 80.0000,-35.8172 80.0000 -80.0000Z"/></g><g stroke-linecap="butt" fill="rgb(173,216,230)" stroke-miterlimit="10.0" stroke-width="1.4310835055998652" fill-opacity="1.0" stroke-opacity="1.0" stroke-linejoin="miter" stroke="rgb(0,0,0)"><path d="M 240.0000,160.0000 c 0.0000,-44.1828 -35.8172,-80.0000 -80.0000 -80.0000c -44.1828,-0.0000 -80.0000,35.8172 -80.0000 80.0000c -0.0000,44.1828 35.8172,80.0000 80.0000 80.0000c 44.1828,0.0000 80.0000,-35.8172 80.0000 -80.0000Z"/></g><g stroke-linecap="butt" fill="rgb(240,128,128)" stroke-miterlimit="10.0" stroke-width="1.4310835055998652" fill-opacity="1.0" stroke-opacity="1.0" stroke-linejoin="miter" stroke="rgb(0,0,0)"><path d="M 280.0000,160.0000 c 0.0000,-44.1828 -35.8172,-80.0000 -80.0000 -80.0000c -44.1828,-0.0000 -80.0000,35.8172 -80.0000 80.0000c -0.0000,44.1828 35.8172,80.0000 80.0000 80.0000c 44.1828,0.0000 80.0000,-35.8172 80.0000 -80.0000Z"/></g><g stroke-linecap="butt" fill="rgb(0,0,0)" font-size="8.0px" stroke-miterlimit="10.0" stroke-width="1.4310835055998652" fill-opacity="1.0" stroke-opacity="1.0" stroke-linejoin="miter" stroke="rgb(0,0,0)"><text transform="matrix(1.0000,0.0000,0.0000,1.0000,180.0000,176.0000)" dominant-baseline="middle" text-anchor="middle" stroke="none">[1]</text></g></svg>